HIERARCHY
ROOT hip
{
  OFFSET 0 90.174 2.4664
  CHANNELS 6 Xposition Yposition Zposition Zrotation Xrotation Yrotation
  JOINT abdomen
  {
    OFFSET 0 -1.186 -1.5018
    CHANNELS 6 Xposition Yposition Zposition Zrotation Xrotation Yrotation
    JOINT abdomen2
    {
      OFFSET 0 9.964 0.2134
      CHANNELS 6 Xposition Yposition Zposition Zrotation Xrotation Yrotation
      JOINT chest
      {
        OFFSET 0 13.134 -3.2573
        CHANNELS 6 Xposition Yposition Zposition Zrotation Xrotation Yrotation
        JOINT neck
        {
          OFFSET 0 20.686 -1.6905
          CHANNELS 6 Xposition Yposition Zposition Zrotation Xrotation Yrotation
          JOINT head
          {
            OFFSET 0 7.238 -0.1237
            CHANNELS 6 Xposition Yposition Zposition Zrotation Xrotation Yrotation
            End Site
            {
              OFFSET 0 0 0
            }
          }
        }
        JOINT lCollar
        {
          OFFSET 1.7069 20.075 5.0056
          CHANNELS 6 Xposition Yposition Zposition Zrotation Xrotation Yrotation
          JOINT lShldr
          {
            OFFSET 13.6458 -0.047 -4.849
            CHANNELS 6 Xposition Yposition Zposition Zrotation Xrotation Yrotation
            JOINT lForeArm
            {
              OFFSET 28.3255 -0.9759 2.2888
              CHANNELS 6 Xposition Yposition Zposition Zrotation Xrotation Yrotation
              JOINT lHand
              {
                OFFSET 22.1583 -0.53 10.8316
                CHANNELS 6 Xposition Yposition Zposition Zrotation Xrotation Yrotation
                JOINT lThumb1
                {
                  OFFSET 0.786 0.112 2.5817
                  CHANNELS 6 Xposition Yposition Zposition Zrotation Xrotation Yrotation
                  JOINT lThumb2
                  {
                    OFFSET 0.3601 -0.878 4.2331
                    CHANNELS 6 Xposition Yposition Zposition Zrotation Xrotation Yrotation
                    JOINT lThumb2_End
                    {
                      OFFSET 1.8127 -1.216 2.2227
                      CHANNELS 6 Xposition Yposition Zposition Zrotation Xrotation Yrotation
                      End Site
                      {
                        OFFSET 0.0181 -0.0122 0.0222
                      }
                    }
                  }
                }
                JOINT lCarpal1
                {
                  OFFSET 0.9571 1.114 1.7695
                  CHANNELS 6 Xposition Yposition Zposition Zrotation Xrotation Yrotation
                  JOINT lIndex1
                  {
                    OFFSET 4.1246 0.487 4.1451
                    CHANNELS 6 Xposition Yposition Zposition Zrotation Xrotation Yrotation
                    JOINT lIndex2
                    {
                      OFFSET 3.4052 -1.454 2.7682
                      CHANNELS 6 Xposition Yposition Zposition Zrotation Xrotation Yrotation
                      JOINT lIndex2_End
                      {
                        OFFSET 1.4531 -1.795 1.2713
                        CHANNELS 6 Xposition Yposition Zposition Zrotation Xrotation Yrotation
                        End Site
                        {
                          OFFSET 0.0145 -0.0179 0.0127
                        }
                      }
                    }
                  }
                  JOINT lMid1
                  {
                    OFFSET 5.6954 0.21 2.1184
                    CHANNELS 6 Xposition Yposition Zposition Zrotation Xrotation Yrotation
                    JOINT lMid2
                    {
                      OFFSET 3.9766 -1.54 2.3863
                      CHANNELS 6 Xposition Yposition Zposition Zrotation Xrotation Yrotation
                      JOINT lMid2_End
                      {
                        OFFSET 1.4042 -1.926 1.125
                        CHANNELS 6 Xposition Yposition Zposition Zrotation Xrotation Yrotation
                        End Site
                        {
                          OFFSET 0.014 -0.0193 0.0113
                        }
                      }
                    }
                  }
                }
                JOINT lCarpal2
                {
                  OFFSET 2.0956 0.66 -0.3894
                  CHANNELS 6 Xposition Yposition Zposition Zrotation Xrotation Yrotation
                  JOINT lRing1
                  {
                    OFFSET 5.0395 -0.09 2.4971
                    CHANNELS 6 Xposition Yposition Zposition Zrotation Xrotation Yrotation
                    JOINT lRing2
                    {
                      OFFSET 3.7921 -1.552 1.4806
                      CHANNELS 6 Xposition Yposition Zposition Zrotation Xrotation Yrotation
                      JOINT lRing2_End
                      {
                        OFFSET 1.4655 -1.808 0.9609
                        CHANNELS 6 Xposition Yposition Zposition Zrotation Xrotation Yrotation
                        End Site
                        {
                          OFFSET 0.0147 -0.0181 0.0096
                        }
                      }
                    }
                  }
                  JOINT lPinky1
                  {
                    OFFSET 4.9141 -1.269 0.3591
                    CHANNELS 6 Xposition Yposition Zposition Zrotation Xrotation Yrotation
                    JOINT lPinky2
                    {
                      OFFSET 3.1477 -1.685 0.8462
                      CHANNELS 6 Xposition Yposition Zposition Zrotation Xrotation Yrotation
                      JOINT lPinky2_End
                      {
                        OFFSET 0.8055 -1.585 0.7955
                        CHANNELS 6 Xposition Yposition Zposition Zrotation Xrotation Yrotation
                        End Site
                        {
                          OFFSET 0.0081 -0.0158 0.008
                        }
                      }
                    }
                  }
                }
              }
            }
          }
        }
        JOINT rCollar
        {
          OFFSET -1.7069 20.075 5.0056
          CHANNELS 6 Xposition Yposition Zposition Zrotation Xrotation Yrotation
          JOINT rShldr
          {
            OFFSET -13.6458 -0.047 -4.849
            CHANNELS 6 Xposition Yposition Zposition Zrotation Xrotation Yrotation
            JOINT rForeArm
            {
              OFFSET -28.3255 -0.9759 2.2888
              CHANNELS 6 Xposition Yposition Zposition Zrotation Xrotation Yrotation
              JOINT rHand
              {
                OFFSET -22.1583 -0.53 10.8316
                CHANNELS 6 Xposition Yposition Zposition Zrotation Xrotation Yrotation
                JOINT rThumb1
                {
                  OFFSET -0.786 0.112 2.5817
                  CHANNELS 6 Xposition Yposition Zposition Zrotation Xrotation Yrotation
                  JOINT rThumb2
                  {
                    OFFSET -0.3601 -0.878 4.2331
                    CHANNELS 6 Xposition Yposition Zposition Zrotation Xrotation Yrotation
                    JOINT rThumb2_End
                    {
                      OFFSET -1.8127 -1.216 2.2227
                      CHANNELS 6 Xposition Yposition Zposition Zrotation Xrotation Yrotation
                      End Site
                      {
                        OFFSET -0.0181 -0.0122 0.0222
                      }
                    }
                  }
                }
                JOINT rCarpal1
                {
                  OFFSET -0.9571 1.114 1.7695
                  CHANNELS 6 Xposition Yposition Zposition Zrotation Xrotation Yrotation
                  JOINT rIndex1
                  {
                    OFFSET -4.1246 0.487 4.1451
                    CHANNELS 6 Xposition Yposition Zposition Zrotation Xrotation Yrotation
                    JOINT rIndex2
                    {
                      OFFSET -3.4052 -1.454 2.7682
                      CHANNELS 6 Xposition Yposition Zposition Zrotation Xrotation Yrotation
                      JOINT rIndex2_End
                      {
                        OFFSET -1.4531 -1.795 1.2713
                        CHANNELS 6 Xposition Yposition Zposition Zrotation Xrotation Yrotation
                        End Site
                        {
                          OFFSET -0.0145 -0.018 0.0127
                        }
                      }
                    }
                  }
                  JOINT rMid1
                  {
                    OFFSET -5.6954 0.21 2.1184
                    CHANNELS 6 Xposition Yposition Zposition Zrotation Xrotation Yrotation
                    JOINT rMid2
                    {
                      OFFSET -3.9766 -1.54 2.3863
                      CHANNELS 6 Xposition Yposition Zposition Zrotation Xrotation Yrotation
                      JOINT rMid2_End
                      {
                        OFFSET -1.4042 -1.926 1.125
                        CHANNELS 6 Xposition Yposition Zposition Zrotation Xrotation Yrotation
                        End Site
                        {
                          OFFSET -0.014 -0.0193 0.0113
                        }
                      }
                    }
                  }
                }
                JOINT rCarpal2
                {
                  OFFSET -2.0956 0.66 -0.3894
                  CHANNELS 6 Xposition Yposition Zposition Zrotation Xrotation Yrotation
                  JOINT rRing1
                  {
                    OFFSET -5.0395 -0.09 2.4971
                    CHANNELS 6 Xposition Yposition Zposition Zrotation Xrotation Yrotation
                    JOINT rRing2
                    {
                      OFFSET -3.7921 -1.552 1.4806
                      CHANNELS 6 Xposition Yposition Zposition Zrotation Xrotation Yrotation
                      JOINT rRing2_End
                      {
                        OFFSET -1.4655 -1.808 0.9609
                        CHANNELS 6 Xposition Yposition Zposition Zrotation Xrotation Yrotation
                        End Site
                        {
                          OFFSET -0.0147 -0.0181 0.0096
                        }
                      }
                    }
                  }
                  JOINT rPinky1
                  {
                    OFFSET -4.9141 -1.269 0.3592
                    CHANNELS 6 Xposition Yposition Zposition Zrotation Xrotation Yrotation
                    JOINT rPinky2
                    {
                      OFFSET -3.1477 -1.685 0.8462
                      CHANNELS 6 Xposition Yposition Zposition Zrotation Xrotation Yrotation
                      JOINT rPinky2_End
                      {
                        OFFSET -0.8055 -1.585 0.7955
                        CHANNELS 6 Xposition Yposition Zposition Zrotation Xrotation Yrotation
                        End Site
                        {
                          OFFSET -0.0081 -0.0158 0.008
                        }
                      }
                    }
                  }
                }
              }
            }
          }
        }
      }
    }
  }
  JOINT lThigh
  {
    OFFSET 8.367 -8.2066 0.5982
    CHANNELS 6 Xposition Yposition Zposition Zrotation Xrotation Yrotation
    JOINT lShin
    {
      OFFSET 2.1923 -43.463 -0.4932
      CHANNELS 6 Xposition Yposition Zposition Zrotation Xrotation Yrotation
      JOINT lFoot
      {
        OFFSET 0.7333 -45.8593 -2.6451
        CHANNELS 6 Xposition Yposition Zposition Zrotation Xrotation Yrotation
        End Site
        {
          OFFSET 2.6618 -4.2699 12.3931
        }
      }
    }
  }
  JOINT rThigh
  {
    OFFSET -8.367 -8.2066 0.5982
    CHANNELS 6 Xposition Yposition Zposition Zrotation Xrotation Yrotation
    JOINT rShin
    {
      OFFSET -2.1923 -43.463 -0.4931
      CHANNELS 6 Xposition Yposition Zposition Zrotation Xrotation Yrotation
      JOINT rFoot
      {
        OFFSET -0.7333 -45.8593 -2.6451
        CHANNELS 6 Xposition Yposition Zposition Zrotation Xrotation Yrotation
        End Site
        {
          OFFSET -2.6618 -4.2699 12.3931
        }
      }
    }
  }
}
MOTION
Frames:	4
Frame Time:	0.0333333
0 90.174 2.4664 0 0 -0 0 -1.186 -1.5018 0 0 -0 0 9.964 0.2134 0 0 -0 0 13.134 -3.2573 0 0 -0 0 20.686 -1.6905 0 0 -0 0 7.238 -0.1237 0 0 -0 1.7069 20.075 5.0056 0 0 -0 13.6458 -0.047 -4.849 1.66051 0.0835086 5.75766 28.3255 -0.9759 2.2888 -0.0175111 0.895433 15.7816 22.1583 -0.53 10.8316 7.95139e-016 -1.98785e-016 -0 0.786 0.112 2.5817 5.46658e-016 -3.97569e-016 -0 0.3601 -0.878 4.2331 5.96354e-016 0 -0 1.8127 -1.216 2.2227 3.97569e-016 1.98785e-016 9.54166e-015 0.9571 1.114 1.7695 1.49089e-016 -3.97569e-016 -0 4.1246 0.487 4.1451 6.4605e-016 0 3.18055e-015 3.4052 -1.454 2.7682 5.96354e-016 0 3.18055e-015 1.4531 -1.795 1.2713 8.94531e-016 -1.98785e-016 6.36111e-015 5.6954 0.21 2.1184 6.4605e-016 0 3.18055e-015 3.9766 -1.54 2.3863 5.96354e-016 0 3.18055e-015 1.4042 -1.926 1.125 8.94531e-016 -1.98785e-016 6.36111e-015 2.0956 0.66 -0.3894 1.49089e-016 -3.97569e-016 -0 5.0395 -0.09 2.4971 6.4605e-016 0 3.18055e-015 3.7921 -1.552 1.4806 5.96354e-016 0 3.18055e-015 1.4655 -1.808 0.9609 8.94531e-016 -1.98785e-016 6.36111e-015 4.9141 -1.269 0.3591 6.4605e-016 0 3.18055e-015 3.1477 -1.685 0.8462 5.96354e-016 0 3.18055e-015 0.8055 -1.585 0.7955 8.94531e-016 -1.98785e-016 6.36111e-015 -1.7069 20.075 5.0056 0 0 -0 -13.6458 -0.047 -4.849 -1.4496 0.0636048 -5.0245 -28.3255 -0.9759 2.2888 -1.74811 1.20616 -16.8394 -22.1583 -0.53 10.8316 -1.19271e-015 1.98785e-016 -3.18055e-015 -0.786 0.112 2.5817 -3.97569e-016 1.98785e-016 -3.18055e-015 -0.3601 -0.878 4.2331 -2.98177e-016 1.98785e-016 -3.18055e-015 -1.8127 -1.216 2.2227 -2.98177e-016 3.97569e-016 -0 -0.9571 1.114 1.7695 4.96962e-016 0 -6.36111e-015 -4.1246 0.487 4.1451 -9.93923e-017 3.97569e-016 -0 -3.4052 -1.454 2.7682 -8.94531e-016 5.96354e-016 -0 -1.4531 -1.795 1.2713 -3.97569e-016 3.97569e-016 -0 -5.6954 0.21 2.1184 -9.93923e-017 3.97569e-016 -0 -3.9766 -1.54 2.3863 -8.94531e-016 5.96354e-016 -0 -1.4042 -1.926 1.125 -3.97569e-016 3.97569e-016 -0 -2.0956 0.66 -0.3894 4.96962e-016 0 -6.36111e-015 -5.0395 -0.09 2.4971 -9.93923e-017 3.97569e-016 -0 -3.7921 -1.552 1.4806 -8.94531e-016 5.96354e-016 -0 -1.4655 -1.808 0.9609 -3.97569e-016 3.97569e-016 -0 -4.9141 -1.269 0.3592 -9.93923e-017 3.97569e-016 -0 -3.1477 -1.685 0.8462 -8.94531e-016 5.96354e-016 -0 -0.8055 -1.585 0.7955 -3.97569e-016 3.97569e-016 -0 8.367 -8.2066 0.5982 -4.66115 -1.03232 0.120763 2.1923 -43.463 -0.4932 0.00990601 1.55097 0.177175 0.7333 -45.8593 -2.6451 4.65196 -0.54114 -0.255042 -8.367 -8.2066 0.5982 4.66115 -1.03222 -0.120763 -2.1923 -43.463 -0.4931 -0.00990459 1.5509 -0.177176 -0.7333 -45.8593 -2.6451 -4.65196 -0.541171 0.255041 
-0.850617 37.0434 -21.9246 -0.0107334 53.3309 0.0161053 1.11022e-016 -1.186 -1.5018 -0.0893684 5.67492 -0.0656614 0 9.964 0.2134 -0.17345 11.35 -0.123291 0 13.134 -3.2573 -0.17345 11.35 -0.123291 0 20.686 -1.6905 4.49785e-006 -31.2748 2.72571e-006 0 7.238 -0.1237 1.69164e-007 2.37948 -2.81631e-009 1.7069 20.075 5.0056 -0.651391 -13.3069 15.5292 13.6458 -0.047 -4.849 3.32071 -4.27113 -42.6968 28.3255 -0.9759 2.2888 10.4871 -12.9376 -14.1228 22.1583 -0.53 10.8316 38.7921 -15.8412 13.5927 0.786 0.112 2.5817 -1.54268e-006 -6.66834e-007 -2.17958e-007 0.3601 -0.878 4.2331 -1.54268e-006 -6.66834e-007 -2.17958e-007 1.8127 -1.216 2.2227 -7.95139e-016 -5.56597e-015 -0 0.9571 1.114 1.7695 2.38542e-015 7.95139e-016 -6.36111e-015 4.1246 0.487 4.1451 -1.54268e-006 -6.66834e-007 -2.17958e-007 3.4052 -1.454 2.7682 -1.54268e-006 -6.66834e-007 -2.17958e-007 1.4531 -1.795 1.2713 7.95139e-016 -2.38542e-015 6.36111e-015 5.6954 0.21 2.1184 -1.54268e-006 -6.66834e-007 -2.17958e-007 3.9766 -1.54 2.3863 -1.54268e-006 -6.66834e-007 -2.17958e-007 1.4042 -1.926 1.125 7.95139e-016 -2.38542e-015 6.36111e-015 2.0956 0.66 -0.3894 2.38542e-015 7.95139e-016 -6.36111e-015 5.0395 -0.09 2.4971 -1.54268e-006 -6.66834e-007 -2.17958e-007 3.7921 -1.552 1.4806 -1.54268e-006 -6.66834e-007 -2.17958e-007 1.4655 -1.808 0.9609 7.95139e-016 -2.38542e-015 6.36111e-015 4.9141 -1.269 0.3591 -1.54268e-006 -6.66834e-007 -2.17958e-007 3.1477 -1.685 0.8462 -1.54268e-006 -6.66834e-007 -2.17958e-007 0.8055 -1.585 0.7955 7.95139e-016 -2.38542e-015 6.36111e-015 -1.7069 20.075 5.0056 0.363325 -13.6994 -14.3399 -13.6458 -0.047 -4.849 -2.03144 -2.12539 42.1495 -28.3255 -0.9759 2.2888 -14.5882 -16.0913 17.9075 -22.1583 -0.53 10.8316 -38.7816 -10.3167 -16.5949 -0.786 0.112 2.5817 2.38542e-015 7.95139e-016 3.18055e-015 -0.3601 -0.878 4.2331 -1.87118e-006 -8.98236e-008 -3.3762e-007 -1.8127 -1.216 2.2227 -7.95139e-016 -2.38542e-015 6.36111e-015 -0.9571 1.114 1.7695 2.38542e-015 -7.95139e-016 3.18055e-015 -4.1246 0.487 4.1451 1.59028e-015 0 9.54166e-015 -3.4052 -1.454 2.7682 -1.87118e-006 -8.98236e-008 -3.3762e-007 -1.4531 -1.795 1.2713 4.77083e-015 -1.59028e-015 -9.54166e-015 -5.6954 0.21 2.1184 1.59028e-015 0 9.54166e-015 -3.9766 -1.54 2.3863 -1.87118e-006 -8.98236e-008 -3.3762e-007 -1.4042 -1.926 1.125 4.77083e-015 -1.59028e-015 -9.54166e-015 -2.0956 0.66 -0.3894 2.38542e-015 -7.95139e-016 3.18055e-015 -5.0395 -0.09 2.4971 1.59028e-015 0 9.54166e-015 -3.7921 -1.552 1.4806 -1.87118e-006 -8.98236e-008 -3.3762e-007 -1.4655 -1.808 0.9609 4.77083e-015 -1.59028e-015 -9.54166e-015 -4.9141 -1.269 0.3592 1.59028e-015 0 9.54166e-015 -3.1477 -1.685 0.8462 -1.87118e-006 -8.98236e-008 -3.3762e-007 -0.8055 -1.585 0.7955 4.77083e-015 -1.59028e-015 -9.54166e-015 8.367 -8.2066 0.5982 26.9034 -23.1676 43.1553 2.1923 -43.463 -0.4932 21.6085 45.7117 13.3405 0.7333 -45.8593 -2.6451 20.2208 36.1549 -22.4132 -8.367 -8.2066 0.5982 -26.9077 -23.1681 -43.1747 -2.1923 -43.463 -0.4931 -21.627 45.7104 -13.3312 -0.7333 -45.8593 -2.6451 -20.2407 36.1415 22.4355 
-1.23302 11.9737 -35.5535 -0.0588664 77.3298 0.0635825 0 -1.186 -1.5018 -0.106884 8.20028 -0.119235 0 9.964 0.2134 -0.199435 16.4008 -0.226365 0 13.134 -3.2573 -0.199435 16.4007 -0.226365 0 20.686 -1.6905 6.36397e-007 -44.5481 5.03919e-007 0 7.238 -0.1237 1.40978e-007 2.66905 -7.97999e-008 1.7069 20.075 5.0056 1.42232 -18.4276 23.2152 13.6458 -0.047 -4.849 2.46469 -3.81109 -64.5667 28.3255 -0.9759 2.2888 11.4994 -16.0199 -28.4302 22.1583 -0.53 10.8316 57.8828 -21.0798 22.791 0.786 0.112 2.5817 -4.77083e-015 -3.18055e-015 1.27222e-014 0.3601 -0.878 4.2331 -6.30603e-007 3.22092e-007 3.83763e-006 1.8127 -1.216 2.2227 7.48154e-007 -1.91467e-006 5.34207e-006 0.9571 1.114 1.7695 0 1.59028e-015 -0 4.1246 0.487 4.1451 -0 0 1.59028e-014 3.4052 -1.454 2.7682 -6.30603e-007 3.22092e-007 3.83763e-006 1.4531 -1.795 1.2713 7.48154e-007 -1.91467e-006 5.34207e-006 5.6954 0.21 2.1184 -0 0 1.59028e-014 3.9766 -1.54 2.3863 -6.30603e-007 3.22092e-007 3.83763e-006 1.4042 -1.926 1.125 7.48154e-007 -1.91467e-006 5.34207e-006 2.0956 0.66 -0.3894 0 1.59028e-015 -0 5.0395 -0.09 2.4971 -0 0 1.59028e-014 3.7921 -1.552 1.4806 -6.30603e-007 3.22092e-007 3.83763e-006 1.4655 -1.808 0.9609 7.48154e-007 -1.91467e-006 5.34207e-006 4.9141 -1.269 0.3591 -0 0 1.59028e-014 3.1477 -1.685 0.8462 -6.30603e-007 3.22092e-007 3.83763e-006 0.8055 -1.585 0.7955 7.48154e-007 -1.91467e-006 5.34207e-006 -1.7069 20.075 5.0056 -1.73651 -19.0869 -21.4639 -13.6458 -0.047 -4.849 -1.57808 -2.19164 63.4044 -28.3255 -0.9759 2.2888 -15.1345 -18.7282 34.9128 -22.1583 -0.53 10.8316 -56.4774 -13.0429 -26.7404 -0.786 0.112 2.5817 3.18055e-015 4.77083e-015 -0 -0.3601 -0.878 4.2331 1.59028e-015 3.18055e-015 6.36111e-015 -1.8127 -1.216 2.2227 1.59028e-015 0 3.18055e-015 -0.9571 1.114 1.7695 3.18055e-015 3.18055e-015 -0 -4.1246 0.487 4.1451 4.77083e-015 -4.77083e-015 6.36111e-015 -3.4052 -1.454 2.7682 3.18055e-015 6.36111e-015 3.18055e-015 -1.4531 -1.795 1.2713 1.59028e-015 4.77083e-015 -3.18055e-015 -5.6954 0.21 2.1184 4.77083e-015 -4.77083e-015 6.36111e-015 -3.9766 -1.54 2.3863 3.18055e-015 6.36111e-015 3.18055e-015 -1.4042 -1.926 1.125 1.59028e-015 4.77083e-015 -3.18055e-015 -2.0956 0.66 -0.3894 3.18055e-015 3.18055e-015 -0 -5.0395 -0.09 2.4971 4.77083e-015 -4.77083e-015 6.36111e-015 -3.7921 -1.552 1.4806 3.18055e-015 6.36111e-015 3.18055e-015 -1.4655 -1.808 0.9609 1.59028e-015 4.77083e-015 -3.18055e-015 -4.9141 -1.269 0.3592 4.77083e-015 -4.77083e-015 6.36111e-015 -3.1477 -1.685 0.8462 3.18055e-015 6.36111e-015 3.18055e-015 -0.8055 -1.585 0.7955 1.59028e-015 4.77083e-015 -3.18055e-015 8.367 -8.2066 0.5982 49.1213 -22.5393 64.532 2.1923 -43.463 -0.4932 16.3181 60.5894 31.9771 0.7333 -45.8593 -2.6451 41.9295 48.2332 -42.248 -8.367 -8.2066 0.5982 -49.1293 -22.5316 -64.5587 -2.1923 -43.463 -0.4931 -16.3499 60.5912 -31.9602 -0.7333 -45.8593 -2.6451 -41.9576 48.2053 42.2746 
-1.14803 17.6483 -32.3977 -0.0370044 71.9967 0.0420106 0 -1.186 -1.5018 -0.104619 7.57619 -0.106424 -2.22045e-016 9.964 0.2134 -0.197522 15.1525 -0.201429 2.22045e-016 13.134 -3.2573 -0.197522 15.1525 -0.201429 0 20.686 -1.6905 -3.53368e-007 -39.8181 2.1698e-007 0 7.238 -0.1237 1.67369e-007 0.867373 1.30074e-007 1.7069 20.075 5.0056 0.707101 -17.1949 21.5858 13.6458 -0.047 -4.849 2.66606 -4.08609 -59.7161 28.3255 -0.9759 2.2888 11.4141 -15.5729 -25.2198 22.1583 -0.53 10.8316 53.5324 -20.0731 20.5984 0.786 0.112 2.5817 -1.89187e-006 -8.35289e-008 -1.39883e-007 0.3601 -0.878 4.2331 1.89187e-006 8.35289e-008 1.39883e-007 1.8127 -1.216 2.2227 -1.89187e-006 -8.35289e-008 -1.39883e-007 0.9571 1.114 1.7695 1.59028e-015 0 -0 4.1246 0.487 4.1451 -1.89187e-006 -8.35289e-008 -1.39883e-007 3.4052 -1.454 2.7682 1.89187e-006 8.35289e-008 1.39883e-007 1.4531 -1.795 1.2713 -1.89187e-006 -8.35289e-008 -1.39883e-007 5.6954 0.21 2.1184 -1.89187e-006 -8.35289e-008 -1.39883e-007 3.9766 -1.54 2.3863 1.89187e-006 8.35289e-008 1.39883e-007 1.4042 -1.926 1.125 -1.89187e-006 -8.35289e-008 -1.39883e-007 2.0956 0.66 -0.3894 1.59028e-015 0 -0 5.0395 -0.09 2.4971 -1.89187e-006 -8.35289e-008 -1.39883e-007 3.7921 -1.552 1.4806 1.89187e-006 8.35289e-008 1.39883e-007 1.4655 -1.808 0.9609 -1.89187e-006 -8.35289e-008 -1.39883e-007 4.9141 -1.269 0.3591 -1.89187e-006 -8.35289e-008 -1.39883e-007 3.1477 -1.685 0.8462 1.89187e-006 8.35289e-008 1.39883e-007 0.8055 -1.585 0.7955 -1.89187e-006 -8.35289e-008 -1.39883e-007 -1.7069 20.075 5.0056 -1.02025 -17.7675 -19.9075 -13.6458 -0.047 -4.849 -1.69049 -2.24392 58.6815 -28.3255 -0.9759 2.2888 -15.171 -18.5288 31.1151 -22.1583 -0.53 10.8316 -52.5333 -12.5757 -24.3789 -0.786 0.112 2.5817 -1.89389e-006 9.28149e-008 -1.5557e-007 -0.3601 -0.878 4.2331 1.20131e-006 1.27004e-006 -1.73462e-008 -1.8127 -1.216 2.2227 -1.89389e-006 9.28149e-008 -1.5557e-007 -0.9571 1.114 1.7695 0 1.59028e-015 -0 -4.1246 0.487 4.1451 -1.89389e-006 9.28149e-008 -1.5557e-007 -3.4052 -1.454 2.7682 1.20131e-006 1.27004e-006 -1.73462e-008 -1.4531 -1.795 1.2713 -1.89389e-006 9.28149e-008 -1.5557e-007 -5.6954 0.21 2.1184 -1.89389e-006 9.28149e-008 -1.5557e-007 -3.9766 -1.54 2.3863 1.20131e-006 1.27004e-006 -1.73462e-008 -1.4042 -1.926 1.125 -1.89389e-006 9.28149e-008 -1.5557e-007 -2.0956 0.66 -0.3894 0 1.59028e-015 -0 -5.0395 -0.09 2.4971 -1.89389e-006 9.28149e-008 -1.5557e-007 -3.7921 -1.552 1.4806 1.20131e-006 1.27004e-006 -1.73462e-008 -1.4655 -1.808 0.9609 -1.89389e-006 9.28149e-008 -1.5557e-007 -4.9141 -1.269 0.3592 -1.89389e-006 9.28149e-008 -1.5557e-007 -3.1477 -1.685 0.8462 1.20131e-006 1.27004e-006 -1.73462e-008 -0.8055 -1.585 0.7955 -1.89389e-006 9.28149e-008 -1.5557e-007 8.367 -8.2066 0.5982 44.1913 -23.4889 60.0226 2.1923 -43.463 -0.4932 19.022 57.5357 26.3695 0.7333 -45.8593 -2.6451 36.1127 46.1484 -37.0958 -8.367 -8.2066 0.5982 -44.1993 -23.4837 -60.0481 -2.1923 -43.463 -0.4931 -19.0507 57.5364 -26.3546 -0.7333 -45.8593 -2.6451 -36.1404 46.1242 37.1231 
